<svg xmlns="http://www.w3.org/2000/svg" viewBox="0 0 2400 800" width="2400" height="800">

<circle cx="340.000" cy="400.000" r="178.125" fill="none" stroke="#000000" stroke-width="26.250"/>
<path d="M 340.000 221.875 A 178.125 178.125 0 0 1 494.261 489.062" fill="none" stroke="#000000" stroke-width="37.500" stroke-linecap="butt"/>

<g fill="#000000" stroke="none">
<path d="M300 -12Q160 -12 93.5 83.0Q27 178 27 349Q27 520 93.5 615.0Q160 710 300 710Q440 710 506.5 615.0Q573 520 573 349Q573 178 506.5 83.0Q440 -12 300 -12ZM300 109Q364 109 388.5 156.5Q413 204 413 289V410Q413 494 388.5 541.5Q364 589 300 589Q236 589 211.5 541.5Q187 494 187 410V288Q187 204 211.5 156.5Q236 109 300 109Z" transform="translate(676.000 517.264) scale(0.336000 -0.336000)"/>
<path d="M194 0 9 698H176L258 343L299 142H307L349 343L432 698H591L406 0Z" transform="translate(877.600 517.264) scale(0.336000 -0.336000)"/>
<path d="M80 0V698H526V575H230V415H516V292H230V123H526V0Z" transform="translate(1079.200 517.264) scale(0.336000 -0.336000)"/>
<path d="M224 0H76V698H346Q397 698 437.0 682.5Q477 667 504.5 638.0Q532 609 546.0 568.0Q560 527 560 476Q560 402 528.0 349.0Q496 296 437 279L574 0H410L293 259H224ZM310 375Q363 375 383.5 395.0Q404 415 404 461V491Q404 537 383.5 557.0Q363 577 310 577H224V375Z" transform="translate(1280.800 517.264) scale(0.336000 -0.336000)"/>
<path d="M224 0H76V698H346Q397 698 437.0 682.5Q477 667 504.5 638.0Q532 609 546.0 568.0Q560 527 560 476Q560 402 528.0 349.0Q496 296 437 279L574 0H410L293 259H224ZM310 375Q363 375 383.5 395.0Q404 415 404 461V491Q404 537 383.5 557.0Q363 577 310 577H224V375Z" transform="translate(1482.400 517.264) scale(0.336000 -0.336000)"/>
<path d="M75 0V111H225V587H75V698H525V587H375V111H525V0Z" transform="translate(1684.000 517.264) scale(0.336000 -0.336000)"/>
<path d="M64 698H289Q430 698 498.0 608.0Q566 518 566 349Q566 180 498.0 90.0Q430 0 289 0H64ZM279 118Q346 118 377.0 161.0Q408 204 408 286V413Q408 494 377.0 537.0Q346 580 279 580H212V118Z" transform="translate(1885.600 517.264) scale(0.336000 -0.336000)"/>
<path d="M80 0V698H526V575H230V415H516V292H230V123H526V0Z" transform="translate(2087.200 517.264) scale(0.336000 -0.336000)"/>
</g>
</svg>